nColumns=28
nRows=26
DataType=double
version=3
OpenSimVersion=4.1
endheader
time	ground_force_1_vx	ground_force_1_vy	ground_force_1_vz	ground_force_1_px	ground_force_1_py	ground_force_1_pz	ground_force_1_mx	ground_force_1_my	ground_force_1_mz	ground_force_2_vx	ground_force_2_vy	ground_force_2_vz	ground_force_2_px	ground_force_2_py	ground_force_2_pz	ground_force_2_mx	ground_force_2_my	ground_force_2_mz	ground_force_3_vx	ground_force_3_vy	ground_force_3_vz	ground_force_3_px	ground_force_3_py	ground_force_3_pz	ground_force_3_mx	ground_force_3_my	ground_force_3_mz
0	3.50896	327.214	-38.1371	-0.239255	0.006	-0.407181	0	-0.828635	0	0.889997	287.69	37.6474	-0.225519	0.006	-0.764833	0	1.46055	0	0	0	0	0	0	0	0	0	0
0.01	3.40464	327.238	-38.1709	-0.238739	0.006	-0.407128	0	-0.841477	0	0.770501	287.907	37.7415	-0.224855	0.006	-0.764985	0	1.42163	0	0	0	0	0	0	0	0	0	0
0.02	3.27034	327.28	-38.2136	-0.2381	0.006	-0.407059	0	-0.85432	0	0.629933	288.206	37.8653	-0.224079	0.006	-0.765156	0	1.38563	0	0	0	0	0	0	0	0	0	0
0.03	3.10438	327.338	-38.2647	-0.237332	0.006	-0.406973	0	-0.866886	0	0.466363	288.592	38.0217	-0.223193	0.006	-0.765346	0	1.35381	0	0	0	0	0	0	0	0	0	0
0.04	2.9067	327.4	-38.323	-0.236436	0.006	-0.40687	0	-0.879075	0	0.277319	289.065	38.2123	-0.2222	0.006	-0.76555	0	1.32665	0	0	0	0	0	0	0	0	0	0
0.05	2.6789	327.458	-38.3874	-0.235416	0.006	-0.406747	0	-0.890907	0	0.0598181	289.621	38.438	-0.221102	0.006	-0.765768	0	1.30391	0	0	0	0	0	0	0	0	0	0
0.06	2.4233	327.498	-38.4561	-0.234277	0.006	-0.406605	0	-0.902417	0	-0.18921	290.253	38.6987	-0.219904	0.006	-0.765996	0	1.28484	0	0	0	0	0	0	0	0	0	0
0.07	2.14207	327.51	-38.527	-0.23303	0.006	-0.406444	0	-0.913609	0	-0.472435	290.95	38.9936	-0.218609	0.006	-0.766233	0	1.2683	0	0	0	0	0	0	0	0	0	0
0.08	1.83747	327.486	-38.5976	-0.231687	0.006	-0.406266	0	-0.924575	0	-0.791957	291.702	39.3203	-0.217224	0.006	-0.766478	0	1.25303	0	0	0	0	0	0	0	0	0	0
0.09	1.51194	327.42	-38.6654	-0.23026	0.006	-0.406073	0	-0.93551	0	-1.14911	292.494	39.6747	-0.215755	0.006	-0.766731	0	1.23781	0	0	0	0	0	0	0	0	0	0
0.1	1.16762	327.303	-38.7285	-0.228766	0.006	-0.405869	0	-0.946552	0	-1.54417	293.308	40.0504	-0.214213	0.006	-0.766989	0	1.22155	0	0	0	0	0	0	0	0	0	0
0.11	0.806554	327.125	-38.7856	-0.227225	0.006	-0.405654	0	-0.957704	0	-1.97618	294.12	40.4383	-0.212609	0.006	-0.767248	0	1.20341	0	0	0	0	0	0	0	0	0	0
0.12	0.431335	326.876	-38.8367	-0.22566	0.006	-0.405432	0	-0.968805	0	-2.44332	294.909	40.8273	-0.210956	0.006	-0.767504	0	1.18287	0	0	0	0	0	0	0	0	0	0
0.13	0.045386	326.545	-38.8823	-0.224096	0.006	-0.405205	0	-0.979493	0	-2.94329	295.652	41.2053	-0.20927	0.006	-0.767755	0	1.15993	0	0	0	0	0	0	0	0	0	0
0.14	-0.346647	326.13	-38.9231	-0.222558	0.006	-0.404972	0	-0.989374	0	-3.47283	296.333	41.5607	-0.207572	0.006	-0.767997	0	1.1351	0	0	0	0	0	0	0	0	0	0
0.15	-0.738972	325.63	-38.9598	-0.221074	0.006	-0.404737	0	-0.998115	0	-4.02721	296.934	41.8843	-0.205882	0.006	-0.768227	0	1.10918	0	0	0	0	0	0	0	0	0	0
0.16	-1.12496	325.056	-38.9922	-0.219668	0.006	-0.4045	0	-1.0055	0	-4.59957	297.441	42.1693	-0.204222	0.006	-0.768442	0	1.08322	0	0	0	0	0	0	0	0	0	0
0.17	-1.49742	324.422	-39.0194	-0.218365	0.006	-0.404262	0	-1.01147	0	-5.18078	297.841	42.4114	-0.202614	0.006	-0.768639	0	1.05857	0	0	0	0	0	0	0	0	0	0
0.18	-1.84815	323.744	-39.0393	-0.217184	0.006	-0.404027	0	-1.01614	0	-5.75949	298.124	42.6079	-0.201078	0.006	-0.768817	0	1.03687	0	0	0	0	0	0	0	0	0	0
0.19	-2.1684	323.042	-39.0486	-0.216145	0.006	-0.403795	0	-1.0196	0	-6.32272	298.288	42.7566	-0.199637	0.006	-0.768975	0	1.01997	0	0	0	0	0	0	0	0	0	0
0.2	-2.44949	322.329	-39.0434	-0.21526	0.006	-0.403572	0	-1.02193	0	-6.85638	298.338	42.8558	-0.198311	0.006	-0.769113	0	1.00967	0	0	0	0	0	0	0	0	0	0
0.21	-2.68347	321.621	-39.0198	-0.214539	0.006	-0.403359	0	-1.02318	0	-7.3457	298.288	42.9043	-0.197124	0.006	-0.769228	0	1.0075	0	0	0	0	0	0	0	0	0	0
0.22	-2.86344	320.928	-38.9742	-0.21399	0.006	-0.40316	0	-1.02345	0	-7.77589	298.155	42.9022	-0.196097	0.006	-0.76932	0	1.01452	0	0	0	0	0	0	0	0	0	0
0.23	-2.98393	320.258	-38.9031	-0.213615	0.006	-0.40298	0	-1.02296	0	-8.13313	297.963	42.8512	-0.195252	0.006	-0.769386	0	1.03107	0	0	0	0	0	0	0	0	0	0
0.24	-3.04169	319.619	-38.8042	-0.213412	0.006	-0.402819	0	-1.02203	0	-8.40514	297.736	42.7549	-0.19461	0.006	-0.769427	0	1.05688	0	0	0	0	0	0	0	0	0	0
0.25	-3.03605	319.013	-38.6759	-0.213379	0.006	-0.40268	0	-1.02098	0	-8.58197	297.497	42.6179	-0.194187	0.006	-0.769442	0	1.09128	0	0	0	0	0	0	0	0	0	0
